<?xml version="1.0"  encoding="UTF-8"?><svg id="Layer_2" xmlns="http://www.w3.org/2000/svg" viewBox="0 0 655.7 662.36"><g id="Layer_1-2"><path d="M4.1,324.43c24.51-24.51,49.21-49.21,73.95-73.95,5.46-5.46,14.31-5.46,19.77,0,48.08,48.15,96.25,96.39,144.44,144.64,8.7,8.71,23.59,2.74,23.87-9.57,2.74-122.23-.51-248.07,.49-371.69,.07-7.68,6.32-13.86,13.99-13.86h94.62c7.72,0,13.98,6.26,13.98,13.98V383.73c0,12.46,15.06,18.69,23.87,9.88,48.21-48.27,96.11-96.23,143.78-143.96,5.46-5.47,14.32-5.46,19.78,0,25.53,25.57,50.43,50.5,74.98,75.09,5.45,5.46,5.45,14.3,0,19.76-104.34,104.32-209.22,209.18-313.83,313.76-5.46,5.46-14.3,5.46-19.76,0C213.92,554.11,109.06,449.2,4.1,344.19c-5.46-5.46-5.46-14.3,0-19.76Z"/></g></svg>