<?xml version="1.0" encoding="UTF-8"?><svg id="Layer_2" xmlns="http://www.w3.org/2000/svg" viewBox="0 0 83.69 70.66"><defs><style>.cls-1{fill:#c63734;}</style></defs><g id="Layer_1-2"><path class="cls-1" d="M12.01,20h9.83c.06,0,.11,.05,.11,.11-.02,7.53-.01,16.39-.01,24.33,0,2.36,1.92,4.28,4.28,4.28h1.08c2.36,0,4.28-1.91,4.28-4.28,0-7.93,0-16.8-.02-24.32,0-.06,.05-.11,.11-.11h9.82c.06,0,.11,.05,.11,.11-.01,7.53-.01,16.41-.01,24.34,0,2.36,1.92,4.28,4.28,4.28h1.07c2.36,0,4.27-1.91,4.27-4.27,0-7.94,0-16.82-.01-24.35,0-.06,.05-.11,.11-.11h15.27c2.87,0,5.19,2.37,5.12,5.24l-.73,33.31c0,.06-.05,.11-.11,.11H12.12c-.06,0-.11-.05-.11-.11,0-12.21,0-26.33-.02-38.54,0,0,0,0,0,0M39.16,0h0s-7.6,0-7.6,0H12.01s0,0,0,0H2.01C.9,0,0,.9,0,2.01V20.01c.01,9.79,.01,20.77,.01,31.02v7.63s0,2,0,2c0,5.52,4.48,10,10,10H80c1.5,0,2.73-1.2,2.76-2.7l.2-9.03,.73-33.03c0-8.31-.4-16.31-2.4-19.31C77.56,1.01,71.28,.01,66.69,0h-13.07s-2.42,0-2.42,0h-12.04Z"/></g></svg>