<?xml version="1.0" encoding="UTF-8"?><svg id="Layer_2" xmlns="http://www.w3.org/2000/svg" viewBox="0 0 212.7 210.56"><g id="Layer_1-2"><g id="HNGjYv.tif"><path d="M212.7,105.93C170,88.05,44,24.05,0,0,15.12,26.86,29.31,53.3,35.64,83.2c2.08-.3,3.54-.52,5-.71,11.11-1.44,21.96-.61,32.21,4.22,8.15,3.84,15.38,9.08,15.44,19.04,.06,9.94-7.06,15.34-15.15,19.29-11.79,5.76-24.26,6.44-36.48,4.32-5.31,14.27-9.85,28.37-15.78,41.84-5.98,13.6-13.35,26.59-19.87,39.36,0,0,144.39-72.76,211.68-104.64Z"/></g></g></svg>